# xmcd CD database file
#
# Track frame offsets:
#	183
#	38680
#	67785
#	103975
#	137998
#	149003
#	178700
#
# Disc length: 2557 seconds
#
# Revision: 1
# Processed by: cddbd v1.5.2PL0 Copyright (c) Steve Scherf et al.
# Submitted via: CDex 1.70beta2
#
DISCID=6709fb07
DTITLE=Trilok Gurtu - Living Magic
DYEAR=1991
DGENRE=Jazz
TTITLE0=Baba
TTITLE1=Living Magic
TTITLE2=Once I Wisched a Tree Upside Down
TTITLE3=Transition
TTITLE4=From Scratch
TTITLE5=Tac, et demi
TTITLE6=TMNOK
EXTD=YEAR: 1991
EXTT0=
EXTT1=
EXTT2=
EXTT3=
EXTT4=
EXTT5=
EXTT6=
PLAYORDER=
